<?xml version="1.0" standalone="no"?>
<!DOCTYPE svg PUBLIC "-//W3C//DTD SVG 20010904//EN"
 "http://www.w3.org/TR/2001/REC-SVG-20010904/DTD/svg10.dtd">
<svg version="1.0" xmlns="http://www.w3.org/2000/svg"
 width="512.000000pt" height="512.000000pt" viewBox="0 0 512.000000 512.000000"
 preserveAspectRatio="xMidYMid meet">
<metadata>
Created by potrace 1.16, written by Peter Selinger 2001-2019
</metadata>
<g transform="translate(0.000000,512.000000) scale(0.100000,-0.100000)"
fill="#000000" stroke="none">
<path d="M525 5080 c-186 -4 -215 -7 -255 -26 -101 -47 -212 -179 -236 -281
-11 -48 -14 -416 -14 -2169 0 -1473 3 -2128 11 -2170 26 -143 129 -280 244
-323 33 -13 94 -27 135 -32 44 -6 953 -8 2205 -7 2050 3 2132 4 2180 22 102
38 179 117 248 255 l42 84 0 2181 0 2181 -29 54 c-38 74 -128 161 -201 197
-59 29 -63 29 -280 35 -258 7 -3741 6 -4050 -1z m4275 -235 c19 -12 43 -35 53
-53 18 -30 19 -100 18 -2136 l-1 -2105 -25 -78 c-32 -101 -63 -155 -100 -172
-44 -21 -4289 -23 -4348 -2 -47 16 -105 66 -118 99 -6 16 -9 867 -9 2194 0
2323 -2 2196 48 2241 11 10 33 22 48 27 16 4 1012 8 2214 7 2178 -2 2185 -2
2220 -22z"/>
<path d="M2790 4003 c-24 -9 -50 -35 -50 -50 0 -7 18 -55 39 -106 22 -50 45
-120 52 -153 11 -56 10 -70 -14 -175 -30 -126 -33 -159 -14 -159 15 0 103 52
135 79 41 35 89 128 102 196 24 128 -18 268 -102 340 -35 29 -49 35 -87 34
-25 0 -53 -3 -61 -6z"/>
<path d="M2355 3881 c-75 -19 -123 -65 -160 -153 -17 -42 -20 -155 -5 -208 13
-49 70 -140 101 -162 76 -56 216 -14 151 45 -10 9 -29 38 -43 64 -19 38 -24
63 -24 123 0 83 23 141 71 183 14 12 32 34 40 48 12 23 11 28 -4 42 -21 19
-86 29 -127 18z"/>
<path d="M2637 3789 c-79 -46 -75 -296 5 -427 27 -44 64 -41 93 8 39 68 22
340 -27 401 -18 23 -49 30 -71 18z"/>
<path d="M2045 3229 c-118 -11 -171 -24 -280 -66 -97 -39 -175 -84 -194 -114
-6 -11 -18 -52 -25 -92 -8 -39 -20 -90 -28 -112 -12 -38 -16 -40 -63 -46 -94
-12 -165 -47 -230 -113 -130 -131 -176 -233 -183 -401 -6 -168 30 -276 148
-443 110 -156 174 -207 438 -343 l124 -64 551 -3 c304 -2 571 0 593 3 62 9
124 63 225 198 101 134 134 194 212 392 126 320 234 798 212 945 -10 67 -39
114 -91 149 -104 69 -229 96 -509 111 -222 12 -770 11 -900 -1z m995 -189 c0
-17 -6 -33 -12 -35 -7 -2 -228 -6 -490 -7 l-478 -3 -6 27 c-3 15 -3 32 1 38 4
7 172 10 496 10 l489 0 0 -30z m287 -207 c-6 -99 -15 -147 -67 -353 -83 -326
-229 -643 -371 -805 l-31 -35 -293 0 c-264 0 -295 2 -313 18 -11 9 -66 67
-123 127 -217 235 -267 315 -333 545 -70 244 -83 350 -63 493 7 49 11 57 25
51 47 -20 171 -46 292 -61 98 -11 215 -16 425 -15 433 1 603 23 760 97 103 49
99 51 92 -62z m-1789 -338 c12 -49 26 -119 32 -155 39 -218 165 -466 302 -595
61 -58 66 -70 32 -91 -64 -41 -359 133 -513 303 -33 36 -75 96 -93 132 -30 61
-33 73 -33 161 0 109 17 155 87 235 51 57 150 127 159 111 4 -6 16 -51 27
-101z"/>
<path d="M2478 2777 c-90 -26 -187 -108 -235 -199 -24 -46 -28 -64 -28 -143 0
-78 4 -97 28 -147 54 -109 148 -177 275 -197 263 -41 489 197 418 441 -18 62
-76 146 -127 184 -74 54 -243 85 -331 61z"/>
</g>
</svg>
